*
G04 Mass Parameters ***
*
G04 Image ***
*
%INC:\USERS\OVIDIU POPA\DOCUMENTS\PROJECTS\ORCAD\DIGITAL\ANALYZER\FULL\02\LAYOUT\ANALYZER-61.SMT*%
%ICAS*%
%MOIN*%
%IPPOS*%
%ASAXBY*%
G74*%FSLAN2X34Y34*%
*
G04 Aperture Definitions ***
*
%ADD10C,0.1200*%
%ADD11R,0.0380X0.0320*%
%ADD12R,0.0875X0.0750*%
%ADD13R,0.0320X0.0380*%
%ADD14R,0.0500X0.0500*%
%ADD15C,0.0550*%
%ADD16R,0.0550X0.0550*%
%ADD17R,0.0500X0.0300*%
%ADD18R,0.1000X0.1000*%
%ADD19C,0.0720*%
%ADD20C,0.0580*%
%ADD21R,0.0580X0.0580*%
%ADD22C,0.0630*%
%ADD23C,0.0500*%
%ADD24R,0.1000X0.0700*%
%ADD25R,0.1000X0.0550*%
%ADD26R,0.0550X0.1000*%
%ADD27R,0.0340X0.0500*%
%ADD28R,0.0340X0.0400*%
%ADD29R,0.1000X0.0750*%
%ADD30O,0.0250X0.0940*%
%ADD31R,0.0250X0.0940*%
%ADD32R,0.1120X0.0650*%
%ADD33R,0.0170X0.0350*%
%ADD34R,0.0400X0.0250*%
%ADD35R,0.1180X0.1180*%
%ADD36O,0.0170X0.0700*%
%ADD37R,0.0170X0.0700*%
%ADD38R,0.0790X0.0790*%
%ADD39R,0.0330X0.0110*%
%ADD40R,0.0110X0.0330*%
%ADD41R,0.0140X0.0210*%
%ADD42R,0.0250X0.0400*%
%ADD43O,0.0610X0.0160*%
%ADD44R,0.0610X0.0160*%
%ADD45R,0.0650X0.1120*%
%ADD46R,0.0350X0.0170*%
%ADD47R,0.0500X0.0900*%
%ADD48R,0.0610X0.0760*%
%ADD49R,0.0680X0.0520*%
%ADD50R,0.0670X0.0860*%
%ADD51R,0.0120X0.0350*%
%ADD52R,0.1500X0.1500*%
%ADD53R,0.0080X0.0220*%
%ADD54R,0.0220X0.0080*%
%ADD55O,0.0160X0.0610*%
%ADD56R,0.0160X0.0610*%
%ADD57R,0.0250X0.0125*%
%ADD58R,0.0750X0.1000*%
%ADD59O,0.0940X0.0250*%
%ADD60R,0.0940X0.0250*%
%ADD61R,0.1960X0.1960*%
%ADD62O,0.0610X0.0079*%
%ADD63O,0.0079X0.0610*%
%ADD64R,0.1180X0.0280*%
%ADD65R,0.0600X0.0600*%
%ADD66R,0.2380X0.1340*%
%ADD67R,0.2160X0.2160*%
%ADD68O,0.0110X0.0610*%
%ADD69R,0.0110X0.0610*%
%ADD70O,0.0610X0.0110*%
%ADD71R,0.0610X0.0110*%
%ADD72O,0.0250X0.1000*%
%ADD73R,0.0250X0.1000*%
%ADD74R,0.0120X0.0295*%
%ADD75R,0.1000X0.0600*%
%ADD76R,0.0472X0.0787*%
%ADD77R,0.0276X0.0098*%
%ADD78C,0.0200*%
%ADD79C,0.0050*%
%ADD80C,0.0100*%
%ADD81C,0.0080*%
%ADD82C,0.0190*%
%ADD83C,0.0200*%
%ADD84C,0.0190*%
%ADD85C,0.0200*%
%ADD86C,0.0200*%
%ADD87C,0.0190*%
%ADD88C,0.1400*%
%ADD89C,0.0750*%
%ADD90R,0.0750X0.0750*%
%ADD91C,0.0920*%
%ADD92C,0.0780*%
%ADD93R,0.0780X0.0780*%
%ADD94C,0.0830*%
%ADD95C,0.0600*%
%ADD96C,0.0060*%
%ADD97C,0.1260*%
%ADD98C,0.0610*%
%ADD99R,0.0610X0.0610*%
%ADD100R,0.1400X0.1400*%
%ADD101R,0.1990X0.1990*%
%ADD102O,0.0630X0.0100*%
%ADD103O,0.0100X0.0630*%
*
G04 Plot Data ***
*
G54D80*
G01X0039000D01*
Y0044000D01*
X0000000D01*
Y0000000D01*
G54D11*
X0025250Y0019400D03*
Y0019960D03*
Y0023750D03*
Y0024310D03*
X0032700Y0030850D03*
Y0031410D03*
X0037100Y0007600D03*
Y0008160D03*
X0035600Y0009400D03*
Y0008840D03*
X0037850Y0008150D03*
Y0007590D03*
X0036350Y0009400D03*
Y0008840D03*
X0037850Y0009400D03*
Y0008840D03*
X0033350Y0007600D03*
Y0008160D03*
X0034850Y0009400D03*
Y0008840D03*
X0032600Y0008150D03*
Y0007590D03*
X0034100Y0009410D03*
Y0008850D03*
X0032600Y0009400D03*
Y0008840D03*
X0030300Y0007600D03*
Y0008160D03*
X0028800Y0009410D03*
Y0008850D03*
X0031050Y0008150D03*
Y0007590D03*
X0029550Y0009400D03*
Y0008840D03*
X0031050Y0009410D03*
Y0008850D03*
X0026550Y0007600D03*
Y0008160D03*
X0028050Y0009400D03*
Y0008840D03*
X0025800Y0008150D03*
Y0007590D03*
X0027300Y0009400D03*
Y0008840D03*
X0025800Y0009400D03*
Y0008840D03*
X0036550Y0026900D03*
Y0027460D03*
X0037300D03*
Y0026900D03*
X0035050D03*
Y0027460D03*
X0035800Y0027450D03*
Y0026890D03*
X0019250Y0004650D03*
Y0005210D03*
X0014300Y0004650D03*
Y0005210D03*
X0009350Y0004650D03*
Y0005210D03*
X0004350Y0004650D03*
Y0005210D03*
X0018500Y0006150D03*
Y0006710D03*
X0017750Y0006150D03*
Y0006710D03*
X0017000Y0006150D03*
Y0006710D03*
X0016250Y0006700D03*
Y0006140D03*
X0013550Y0006200D03*
Y0006760D03*
X0012800Y0006200D03*
Y0006760D03*
X0012050Y0006200D03*
Y0006760D03*
X0011300Y0006750D03*
Y0006190D03*
X0008600Y0006200D03*
Y0006760D03*
X0007850Y0006200D03*
Y0006760D03*
X0007100Y0006200D03*
Y0006760D03*
X0006350Y0006750D03*
Y0006190D03*
X0003600Y0006200D03*
Y0006760D03*
X0002850Y0006200D03*
Y0006760D03*
X0002100Y0006200D03*
Y0006760D03*
X0001350Y0006750D03*
Y0006190D03*
X0019200Y0009450D03*
Y0010010D03*
X0015450Y0009450D03*
Y0010010D03*
X0014250Y0009450D03*
Y0010010D03*
X0010500Y0009450D03*
Y0010010D03*
X0009300Y0009450D03*
Y0010010D03*
X0005550Y0009450D03*
Y0010010D03*
X0004350Y0009440D03*
Y0010000D03*
X0000600Y0009450D03*
Y0010010D03*
X0019200Y0011260D03*
Y0010700D03*
X0015450Y0011250D03*
Y0010690D03*
X0014250Y0011250D03*
Y0010690D03*
X0010500Y0011260D03*
Y0010700D03*
X0009300Y0011260D03*
Y0010700D03*
X0005550Y0011250D03*
Y0010690D03*
X0004350Y0011250D03*
Y0010690D03*
X0000600Y0011250D03*
Y0010690D03*
X0014700Y0015250D03*
Y0015810D03*
X0001400Y0015850D03*
Y0015290D03*
X0011900Y0016450D03*
Y0017010D03*
X0012150Y0024850D03*
Y0024290D03*
X0010650Y0024300D03*
Y0024860D03*
X0009900Y0024300D03*
Y0024860D03*
X0002050Y0024650D03*
Y0024090D03*
X0001300Y0024650D03*
Y0024090D03*
X0011400Y0026350D03*
Y0025790D03*
X0010650Y0026360D03*
Y0025800D03*
X0002050Y0026210D03*
Y0025650D03*
X0013650Y0027140D03*
Y0027700D03*
X0012900Y0027150D03*
Y0027710D03*
X0012850Y0029050D03*
Y0029610D03*
X0012100Y0029600D03*
Y0029040D03*
X0011360Y0029050D03*
Y0029610D03*
X0010650Y0029600D03*
Y0029040D03*
X0009900Y0029050D03*
Y0029610D03*
X0009150Y0029600D03*
Y0029040D03*
X0008400Y0029050D03*
Y0029610D03*
X0007650Y0029600D03*
Y0029040D03*
X0009200Y0031000D03*
Y0031560D03*
X0004800Y0031000D03*
Y0031560D03*
X0000430Y0030970D03*
Y0031530D03*
X0017000Y0034550D03*
Y0033990D03*
X0016250Y0034550D03*
Y0033990D03*
X0016280Y0035830D03*
Y0035270D03*
X0033700Y0037200D03*
Y0036640D03*
X0032950Y0037200D03*
Y0036640D03*
X0032200Y0036650D03*
Y0037210D03*
X0021250Y0038500D03*
Y0037940D03*
X0017250Y0038450D03*
Y0037890D03*
X0034700Y0038350D03*
Y0038910D03*
X0026400Y0038350D03*
Y0038910D03*
X0033500Y0042750D03*
Y0042190D03*
X0032000Y0042750D03*
Y0042190D03*
X0029350Y0042750D03*
Y0042190D03*
X0027850Y0042750D03*
Y0042190D03*
X0025200Y0042750D03*
Y0042190D03*
X0009650Y0012850D03*
Y0012290D03*
X0008150Y0012850D03*
Y0012290D03*
X0005900Y0012300D03*
Y0012860D03*
X0004400Y0012300D03*
Y0012860D03*
X0002900Y0012300D03*
Y0012860D03*
X0008850Y0019650D03*
Y0020210D03*
X0008100Y0019650D03*
Y0020210D03*
X0006600Y0020200D03*
Y0019640D03*
X0005100Y0020200D03*
Y0019640D03*
X0002850Y0020200D03*
Y0019640D03*
X0014100Y0024400D03*
Y0024960D03*
X0021200Y0025750D03*
Y0025190D03*
X0014100Y0025650D03*
Y0026210D03*
X0029750Y0027200D03*
Y0026640D03*
X0027800Y0027200D03*
Y0026640D03*
X0029750Y0030950D03*
Y0031510D03*
X0027800Y0030950D03*
Y0031510D03*
X0012150Y0025800D03*
Y0026360D03*
Y0027150D03*
Y0027710D03*
X0034450Y0036650D03*
Y0037210D03*
X0020250Y0039200D03*
Y0039760D03*
X0036350Y0007600D03*
Y0008160D03*
X0037100Y0009400D03*
Y0008840D03*
X0034100Y0007600D03*
Y0008160D03*
X0033350Y0009400D03*
Y0008840D03*
X0029550Y0007600D03*
Y0008160D03*
X0030300Y0009410D03*
Y0008850D03*
X0027300Y0007600D03*
Y0008160D03*
X0026550Y0009400D03*
Y0008840D03*
X0038050Y0026900D03*
Y0027460D03*
X0034300Y0026900D03*
Y0027460D03*
X0015500Y0003400D03*
Y0003960D03*
X0010550Y0003400D03*
Y0003960D03*
X0005600Y0003400D03*
Y0003960D03*
X0000600Y0003400D03*
Y0003960D03*
X0015500Y0005210D03*
Y0004650D03*
X0010550Y0005200D03*
Y0004640D03*
X0005600Y0005200D03*
Y0004640D03*
X0000600Y0005200D03*
Y0004640D03*
X0019250Y0006150D03*
Y0006710D03*
X0015500Y0006700D03*
Y0006140D03*
X0014300Y0006200D03*
Y0006760D03*
X0010550Y0006750D03*
Y0006190D03*
X0009350Y0006200D03*
Y0006760D03*
X0005600D03*
Y0006200D03*
X0004350D03*
Y0006760D03*
X0000600Y0006750D03*
Y0006190D03*
X0018450Y0010010D03*
Y0009450D03*
X0016200Y0010000D03*
Y0009440D03*
X0013500Y0010000D03*
Y0009440D03*
X0011250Y0010000D03*
Y0009440D03*
X0008550Y0010000D03*
Y0009440D03*
X0006300Y0010000D03*
Y0009440D03*
X0003600Y0010010D03*
Y0009450D03*
X0001350Y0010010D03*
Y0009450D03*
X0018450Y0010700D03*
Y0011260D03*
X0017700Y0010700D03*
Y0011260D03*
X0016950Y0010700D03*
Y0011260D03*
X0016200Y0010700D03*
Y0011260D03*
X0013500Y0010700D03*
Y0011260D03*
X0012750Y0010700D03*
Y0011260D03*
X0012000Y0010700D03*
Y0011260D03*
X0011250Y0010700D03*
Y0011260D03*
X0008550Y0010700D03*
Y0011260D03*
X0007800Y0010700D03*
Y0011260D03*
X0007050Y0010700D03*
Y0011260D03*
X0006300Y0010700D03*
Y0011260D03*
X0003600Y0010700D03*
Y0011260D03*
X0002850Y0010690D03*
Y0011250D03*
X0002100Y0010700D03*
Y0011260D03*
X0001350Y0010700D03*
Y0011260D03*
X0008900Y0012850D03*
Y0012290D03*
X0007400Y0012850D03*
Y0012290D03*
X0006650Y0012850D03*
Y0012290D03*
X0005150Y0012850D03*
Y0012290D03*
X0003650Y0012850D03*
Y0012290D03*
X0019950Y0015250D03*
Y0015810D03*
X0019200Y0015250D03*
Y0015810D03*
X0018450Y0015250D03*
Y0015810D03*
X0017700Y0015250D03*
Y0015810D03*
X0016950Y0015250D03*
Y0015810D03*
X0016200Y0015250D03*
Y0015810D03*
X0015450Y0015250D03*
Y0015810D03*
X0011900Y0015200D03*
Y0015760D03*
X0000650Y0015850D03*
Y0015290D03*
X0009600Y0019650D03*
Y0020210D03*
X0007350Y0019650D03*
Y0020210D03*
X0005850Y0019650D03*
Y0020210D03*
X0004350Y0019650D03*
Y0020210D03*
X0003600Y0019650D03*
Y0020210D03*
X0025250Y0020650D03*
Y0021210D03*
X0019550Y0024050D03*
Y0023490D03*
X0018800Y0024050D03*
Y0023490D03*
X0018050Y0024050D03*
Y0023490D03*
X0017300Y0024050D03*
Y0023490D03*
X0016550Y0024050D03*
Y0023490D03*
X0015800Y0024050D03*
Y0023490D03*
X0015050Y0024050D03*
Y0023490D03*
X0025250Y0022500D03*
Y0023060D03*
X0013350Y0024400D03*
Y0024960D03*
X0011400Y0024850D03*
Y0024290D03*
X0009150Y0024850D03*
Y0024290D03*
X0008400Y0024850D03*
Y0024290D03*
X0020450Y0025750D03*
Y0025190D03*
X0013350Y0025650D03*
Y0026210D03*
X0012400Y0032250D03*
Y0032810D03*
X0009200Y0032250D03*
Y0032810D03*
X0007950Y0032250D03*
Y0032810D03*
X0004800Y0032250D03*
Y0032810D03*
X0003550Y0032250D03*
Y0032810D03*
X0000430Y0032220D03*
Y0032780D03*
X0017750Y0034000D03*
Y0034560D03*
X0009100Y0034350D03*
Y0033790D03*
X0008350Y0034350D03*
Y0033790D03*
X0007600Y0034350D03*
Y0033790D03*
X0005500Y0034350D03*
Y0033790D03*
X0004750Y0034350D03*
Y0033790D03*
X0004000Y0034350D03*
Y0033790D03*
X0001950Y0034900D03*
Y0034340D03*
X0001200Y0034900D03*
Y0034340D03*
X0000450Y0034900D03*
Y0034340D03*
X0031200Y0036150D03*
Y0035590D03*
X0006700Y0036400D03*
Y0035840D03*
X0003100Y0036400D03*
Y0035840D03*
X0000450Y0036550D03*
Y0035990D03*
X0024250Y0037000D03*
Y0037560D03*
X0012850Y0037200D03*
Y0037760D03*
X0012100Y0037200D03*
Y0037760D03*
X0011050Y0037200D03*
Y0037760D03*
X0010300Y0037200D03*
Y0037760D03*
X0006700Y0037650D03*
Y0037090D03*
X0003100Y0037650D03*
Y0037090D03*
X0036200Y0038350D03*
Y0038910D03*
X0035450Y0038350D03*
Y0038910D03*
X0033950Y0038350D03*
Y0038910D03*
X0032050Y0038350D03*
Y0038910D03*
X0031300Y0038350D03*
Y0038910D03*
X0030550Y0038350D03*
Y0038910D03*
X0028650Y0038350D03*
Y0038910D03*
X0027900Y0038350D03*
Y0038910D03*
X0027150Y0038350D03*
Y0038910D03*
X0025650Y0038350D03*
Y0038910D03*
X0020250Y0038500D03*
Y0037940D03*
X0014280Y0038020D03*
Y0038580D03*
X0021250Y0039750D03*
Y0039190D03*
X0017250Y0039150D03*
Y0039710D03*
X0014280Y0039270D03*
Y0039830D03*
X0038130Y0040930D03*
Y0040370D03*
X0014880Y0040820D03*
Y0041380D03*
X0036150Y0042200D03*
Y0042760D03*
X0034250Y0042750D03*
Y0042190D03*
X0032750Y0042750D03*
Y0042190D03*
X0030100Y0042750D03*
Y0042190D03*
X0028600Y0042750D03*
Y0042190D03*
X0025950Y0042750D03*
Y0042190D03*
X0020600Y0042450D03*
Y0043010D03*
X0019850Y0042450D03*
Y0043010D03*
X0014900Y0042610D03*
Y0042050D03*
G54D12*
X0016200Y0042100D03*
Y0040725D03*
G54D13*
X0024150Y0025050D03*
X0023590D03*
X0022710D03*
X0022150D03*
X0021060Y0024400D03*
X0020500D03*
X0023600Y0025800D03*
X0024160D03*
X0022150D03*
X0022710D03*
X0033390Y0030100D03*
X0033950D03*
X0018750Y0007450D03*
X0019310D03*
X0018750Y0008300D03*
X0019310D03*
X0016010D03*
X0015450D03*
X0016000Y0007450D03*
X0015440D03*
X0013800D03*
X0014360D03*
X0013800Y0008300D03*
X0014360D03*
X0011050Y0007450D03*
X0010490D03*
X0011050Y0008300D03*
X0010490D03*
X0008850Y0007450D03*
X0009410D03*
X0008800Y0008300D03*
X0009360D03*
X0006100Y0007450D03*
X0005540D03*
X0006100Y0008300D03*
X0005540D03*
X0003850Y0007450D03*
X0004410D03*
X0003850Y0008300D03*
X0004410D03*
X0001110D03*
X0000550D03*
X0001100Y0007450D03*
X0000540D03*
X0030550Y0019300D03*
X0031110D03*
X0010150Y0016650D03*
X0009590D03*
X0012890Y0017400D03*
X0013450D03*
X0021100Y0018900D03*
X0021660D03*
X0001450Y0018850D03*
X0000890D03*
X0021100Y0019650D03*
X0021660D03*
X0013460Y0021150D03*
X0012900D03*
X0016660Y0025200D03*
X0016100D03*
X0030450Y0027100D03*
X0031010D03*
X0030450Y0027850D03*
X0031010D03*
X0016100Y0025950D03*
X0016660D03*
X0012900Y0030550D03*
X0012340D03*
X0008400D03*
X0007840D03*
X0004000D03*
X0003440D03*
X0037660Y0032200D03*
X0037100D03*
X0032760Y0032150D03*
X0032200D03*
X0037100Y0032950D03*
X0037660D03*
Y0033700D03*
X0037100D03*
X0032200Y0033650D03*
X0032760D03*
X0037100Y0034450D03*
X0037660D03*
Y0035200D03*
X0037100D03*
X0029600Y0034500D03*
X0030160D03*
X0037100Y0035950D03*
X0037660D03*
Y0036700D03*
X0037100D03*
X0030160Y0036800D03*
X0029600D03*
X0037100Y0037450D03*
X0037660D03*
X0011300Y0039650D03*
X0010740D03*
X0007460D03*
X0006900D03*
X0003510D03*
X0002950D03*
X0022250Y0040400D03*
X0021690D03*
X0002350Y0013600D03*
X0002910D03*
X0009600Y0014400D03*
X0010160D03*
X0002350Y0015100D03*
X0002910D03*
X0009600Y0015900D03*
X0010160D03*
X0002350Y0016600D03*
X0002910D03*
X0002350Y0018100D03*
X0002910D03*
X0009600Y0018900D03*
X0010160D03*
X0001310Y0025450D03*
X0000750D03*
X0017610Y0028400D03*
X0017050D03*
X0016450Y0029650D03*
X0015890D03*
X0018700Y0031000D03*
X0019260D03*
X0017550Y0032950D03*
X0016990D03*
X0020150Y0036050D03*
X0020710D03*
X0010150Y0017400D03*
X0009590D03*
X0015400Y0025950D03*
X0014840D03*
X0032170Y0035920D03*
X0032730D03*
X0010750Y0038550D03*
X0011310D03*
X0007460D03*
X0006900D03*
X0003510D03*
X0002950D03*
X0022950Y0040400D03*
X0023510D03*
X0035200Y0030100D03*
X0034640D03*
X0034630Y0033180D03*
X0034070D03*
X0036380Y0030980D03*
X0035820D03*
X0036750Y0010400D03*
X0036190D03*
X0034950D03*
X0035510D03*
X0034900Y0006600D03*
X0034340D03*
X0034250Y0010400D03*
X0033690D03*
X0035600Y0006600D03*
X0036160D03*
X0029950Y0010400D03*
X0029390D03*
X0028150D03*
X0028710D03*
X0028080Y0006620D03*
X0027520D03*
X0027460Y0010400D03*
X0026900D03*
X0028770Y0006620D03*
X0029330D03*
X0017600Y0008300D03*
X0017040D03*
X0012650D03*
X0012090D03*
X0007650D03*
X0007090D03*
X0002700D03*
X0002140D03*
X0009600Y0013650D03*
X0010160D03*
X0002910Y0014350D03*
X0002350D03*
X0030550Y0020300D03*
X0031110D03*
X0009600Y0015150D03*
X0010160D03*
X0002900Y0015850D03*
X0002340D03*
X0023750Y0017750D03*
X0023190D03*
X0021660Y0016650D03*
X0021100D03*
X0021660Y0017400D03*
X0021100D03*
X0012900Y0016650D03*
X0013460D03*
X0002910Y0017350D03*
X0002350D03*
X0021660Y0018150D03*
X0021100D03*
X0012900D03*
X0013460D03*
X0009600D03*
X0010160D03*
X0012900Y0018900D03*
X0013460D03*
X0012900Y0019650D03*
X0013460D03*
X0002910Y0018850D03*
X0002350D03*
X0030550Y0025500D03*
X0031110D03*
X0021660Y0020400D03*
X0021100D03*
X0012900D03*
X0013460D03*
X0021660Y0021150D03*
X0021100D03*
X0011300Y0021650D03*
X0011860D03*
X0007360D03*
X0006800D03*
X0004950D03*
X0005510D03*
X0001000D03*
X0000440D03*
X0021660Y0021900D03*
X0021100D03*
X0021650Y0022650D03*
X0021090D03*
X0012900Y0021900D03*
X0013460D03*
X0012900Y0022650D03*
X0013460D03*
X0011300Y0022400D03*
X0011860D03*
X0004950D03*
X0005510D03*
X0011300Y0023150D03*
X0011860D03*
X0007360D03*
X0006800D03*
X0004950D03*
X0005510D03*
X0001010D03*
X0000450D03*
X0001310Y0026200D03*
X0000750D03*
X0030450Y0028600D03*
X0031010D03*
X0030450Y0029350D03*
X0031010D03*
X0026500Y0028700D03*
X0027060D03*
X0015800Y0028400D03*
X0016360D03*
X0030450Y0030100D03*
X0031010D03*
X0030450Y0030850D03*
X0031010D03*
X0026500Y0029450D03*
X0027060D03*
Y0030200D03*
X0026500D03*
X0017700Y0029650D03*
X0017140D03*
X0020500Y0031000D03*
X0019940D03*
X0012900Y0031300D03*
X0012340D03*
X0008400D03*
X0007840D03*
X0004000D03*
X0003440D03*
X0017560Y0032150D03*
X0017000D03*
X0032750Y0032900D03*
X0032190D03*
X0032750Y0034400D03*
X0032190D03*
X0014560Y0034050D03*
X0014000D03*
X0032750Y0035150D03*
X0032190D03*
X0021960Y0036050D03*
X0021400D03*
X0001810Y0037650D03*
X0001250D03*
X0019000Y0038250D03*
X0018440D03*
G54D14*
X0015750Y0043450D03*
X0016590D03*
X0018000Y0007500D03*
X0016750D03*
X0013050D03*
X0011800D03*
X0008100D03*
X0006850D03*
X0003100D03*
X0001850D03*
G54D15*
X0034550Y0000450D03*
Y0001450D03*
X0035050Y0000950D03*
X0035550Y0000450D03*
Y0001450D03*
X0030550Y0000450D03*
Y0001450D03*
X0031050Y0000950D03*
X0031550Y0000450D03*
Y0001450D03*
X0025400Y0000450D03*
Y0001450D03*
X0025900Y0000950D03*
X0026400Y0000450D03*
Y0001450D03*
X0021450Y0000450D03*
Y0001450D03*
X0021950Y0000950D03*
X0022450Y0000450D03*
Y0001450D03*
X0016450Y0000500D03*
Y0001500D03*
X0016950Y0001000D03*
X0017450Y0000500D03*
Y0001500D03*
X0012450Y0000500D03*
Y0001500D03*
X0012950Y0001000D03*
X0013450Y0000500D03*
Y0001500D03*
X0007450Y0000500D03*
Y0001500D03*
X0007950Y0001000D03*
X0008450Y0000500D03*
Y0001500D03*
X0003450Y0000500D03*
Y0001500D03*
X0003950Y0001000D03*
X0004450Y0000500D03*
Y0001500D03*
G54D17*
X0031050Y0021200D03*
Y0024600D03*
X0009100Y0039750D03*
X0005200Y0038350D03*
X0001100D03*
X0020250Y0040400D03*
G54D18*
X0031050Y0022250D03*
Y0023550D03*
X0009100Y0038700D03*
X0005200Y0039400D03*
X0001100D03*
X0020250Y0041450D03*
G54D20*
X0021700Y0005250D03*
X0020700D03*
X0022700Y0006250D03*
X0021700D03*
X0020700D03*
X0022700Y0007250D03*
X0021700D03*
X0020700D03*
X0021700Y0009150D03*
X0020700D03*
X0022700Y0010150D03*
X0021700D03*
X0020700D03*
X0022700Y0011150D03*
X0021700D03*
X0020700D03*
X0005600Y0024750D03*
X0004600D03*
X0006600Y0025750D03*
X0005600D03*
X0004600D03*
X0006600Y0026750D03*
X0005600D03*
X0004600D03*
X0005600Y0027750D03*
X0004600D03*
X0025400Y0035650D03*
Y0036650D03*
X0026400Y0034650D03*
Y0035650D03*
Y0036650D03*
X0027400Y0034650D03*
Y0035650D03*
Y0036650D03*
X0028400Y0035650D03*
Y0036650D03*
G54D21*
X0022700Y0005250D03*
Y0009150D03*
X0006600Y0024750D03*
Y0027750D03*
X0025400Y0034650D03*
X0028400D03*
G54D22*
X0021450Y0013900D03*
Y0012900D03*
X0020450Y0013900D03*
Y0012900D03*
X0019450Y0013900D03*
Y0012900D03*
X0018450Y0013900D03*
Y0012900D03*
X0017450Y0013900D03*
Y0012900D03*
X0016450Y0013900D03*
Y0012900D03*
X0015450Y0013900D03*
Y0012900D03*
X0014450Y0013900D03*
Y0012900D03*
X0013450Y0013900D03*
Y0012900D03*
X0012450Y0013900D03*
Y0012900D03*
G54D24*
X0022600Y0041350D03*
Y0043300D03*
G54D25*
X0018600Y0036050D03*
Y0037450D03*
G54D26*
X0015500Y0035400D03*
X0014100D03*
G54D27*
X0011020Y0027890D03*
X0035770Y0037390D03*
G54D28*
X0010650Y0027100D03*
X0011390D03*
X0035400Y0036600D03*
X0036140D03*
G54D29*
X0008350Y0036330D03*
X0004750D03*
X0018250Y0041720D03*
G54D30*
X0017650Y0005000D03*
X0017150D03*
X0016650D03*
Y0003040D03*
X0017150D03*
X0017650D03*
X0018150D03*
X0012700Y0005010D03*
X0012200D03*
X0011700D03*
Y0003050D03*
X0012200D03*
X0012700D03*
X0013200D03*
X0007700Y0005000D03*
X0007200D03*
X0006700D03*
Y0003040D03*
X0007200D03*
X0007700D03*
X0008200D03*
X0002700Y0005000D03*
X0002200D03*
X0001700D03*
Y0003040D03*
X0002200D03*
X0002700D03*
X0003200D03*
X0023200Y0018800D03*
X0023700D03*
X0024200D03*
Y0020760D03*
X0023700D03*
X0023200D03*
X0022700D03*
X0023200Y0022150D03*
X0023700D03*
X0024200D03*
Y0024110D03*
X0023700D03*
X0023200D03*
X0022700D03*
X0008100Y0035350D03*
X0008600D03*
X0009100D03*
Y0037310D03*
X0008600D03*
X0008100D03*
X0007600D03*
X0004500Y0035350D03*
X0005000D03*
X0005500D03*
Y0037310D03*
X0005000D03*
X0004500D03*
X0004000D03*
X0018500Y0042700D03*
X0018000D03*
X0017500D03*
Y0040740D03*
X0018000D03*
X0018500D03*
X0019000D03*
G54D31*
X0018150Y0005000D03*
X0013200Y0005010D03*
X0008200Y0005000D03*
X0003200D03*
X0022700Y0018800D03*
Y0022150D03*
X0007600Y0035350D03*
X0004000D03*
X0019000Y0042700D03*
G54D32*
X0034460Y0031670D03*
Y0040520D03*
X0032160D03*
X0029860D03*
X0027560D03*
X0025260D03*
G54D33*
X0035100Y0032500D03*
X0034844D03*
X0034588D03*
X0034332D03*
X0034076D03*
X0033820D03*
Y0030840D03*
X0034076D03*
X0034332D03*
X0034588D03*
X0034844D03*
X0035100D03*
Y0041350D03*
X0034844D03*
X0034588D03*
X0034332D03*
X0034076D03*
X0033820D03*
Y0039690D03*
X0034076D03*
X0034332D03*
X0034588D03*
X0034844D03*
X0035100D03*
X0032800Y0041350D03*
X0032544D03*
X0032288D03*
X0032032D03*
X0031776D03*
X0031520D03*
Y0039690D03*
X0031776D03*
X0032032D03*
X0032288D03*
X0032544D03*
X0032800D03*
X0030500Y0041350D03*
X0030244D03*
X0029988D03*
X0029732D03*
X0029476D03*
X0029220D03*
Y0039690D03*
X0029476D03*
X0029732D03*
X0029988D03*
X0030244D03*
X0030500D03*
X0028200Y0041350D03*
X0027944D03*
X0027688D03*
X0027432D03*
X0027176D03*
X0026920D03*
Y0039690D03*
X0027176D03*
X0027432D03*
X0027688D03*
X0027944D03*
X0028200D03*
X0025900Y0041350D03*
X0025644D03*
X0025388D03*
X0025132D03*
X0024876D03*
X0024620D03*
Y0039690D03*
X0024876D03*
X0025132D03*
X0025388D03*
X0025644D03*
X0025900D03*
G54D34*
X0012800Y0015900D03*
Y0015150D03*
X0013800D03*
Y0015525D03*
Y0015900D03*
X0012800Y0015525D03*
X0017850Y0030650D03*
Y0031400D03*
X0016850D03*
Y0031025D03*
Y0030650D03*
X0012950Y0035700D03*
Y0036450D03*
X0011950D03*
Y0036075D03*
Y0035700D03*
X0011150D03*
Y0036450D03*
X0010150D03*
Y0036075D03*
Y0035700D03*
X0019300Y0039050D03*
Y0039800D03*
X0018300D03*
Y0039425D03*
Y0039050D03*
X0037375Y0040275D03*
Y0041025D03*
X0036375D03*
Y0040650D03*
Y0040275D03*
G54D35*
X0022732Y0038300D03*
X0015732Y0038450D03*
G54D36*
X0023244Y0039550D03*
X0022988D03*
X0022732D03*
X0022476D03*
X0022220D03*
X0021964D03*
Y0037050D03*
X0022220D03*
X0022476D03*
X0022732D03*
X0022988D03*
X0023244D03*
X0023500D03*
X0016244Y0039700D03*
X0015988D03*
X0015732D03*
X0015476D03*
X0015220D03*
X0014964D03*
Y0037200D03*
X0015220D03*
X0015476D03*
X0015732D03*
X0015988D03*
X0016244D03*
X0016500D03*
G54D37*
X0023500Y0039550D03*
X0016500Y0039700D03*
G54D38*
X0001783Y0036271D03*
G54D39*
X0002455Y0035888D03*
Y0036085D03*
Y0036281D03*
Y0036478D03*
Y0036674D03*
X0001112D03*
Y0036478D03*
Y0036281D03*
Y0036085D03*
Y0035888D03*
G54D40*
X0001399Y0035596D03*
X0001596D03*
X0001793D03*
X0001990D03*
X0002187D03*
X0002186Y0036943D03*
X0001989D03*
X0001793D03*
X0001596D03*
X0001400D03*
G54D41*
X0017400Y0035950D03*
X0017140D03*
X0016880D03*
Y0035200D03*
X0017140D03*
X0017400D03*
G54D42*
X0037400Y0029300D03*
X0036650D03*
Y0028300D03*
X0037025D03*
X0037400D03*
X0037025Y0029300D03*
X0037350Y0030450D03*
X0038100D03*
Y0031450D03*
X0037725D03*
X0037350D03*
X0035750Y0029300D03*
X0035000D03*
Y0028300D03*
X0035375D03*
X0035750D03*
X0035375Y0029300D03*
X0000750Y0016600D03*
X0001500D03*
Y0017600D03*
X0001125D03*
X0000750D03*
X0001125Y0016600D03*
X0029500Y0035150D03*
X0030250D03*
Y0036150D03*
X0029875D03*
X0029500D03*
X0029875Y0035150D03*
G54D43*
X0017520Y0025612D03*
Y0025356D03*
Y0025100D03*
X0019650D03*
Y0025356D03*
Y0025612D03*
Y0025868D03*
X0017749Y0027137D03*
Y0027393D03*
Y0027649D03*
X0015619D03*
Y0027393D03*
Y0027137D03*
Y0026881D03*
X0035950Y0034256D03*
Y0034512D03*
Y0034768D03*
Y0035024D03*
Y0035280D03*
Y0035536D03*
Y0035792D03*
X0033820D03*
Y0035536D03*
Y0035280D03*
Y0035024D03*
Y0034768D03*
Y0034512D03*
Y0034256D03*
Y0034000D03*
G54D44*
X0017520Y0025868D03*
X0017749Y0026881D03*
X0035950Y0034000D03*
G54D45*
X0010830Y0032210D03*
X0006380D03*
X0001980D03*
G54D46*
X0010000Y0032850D03*
Y0032594D03*
Y0032338D03*
Y0032082D03*
Y0031826D03*
Y0031570D03*
X0011660D03*
Y0031826D03*
Y0032082D03*
Y0032338D03*
Y0032594D03*
Y0032850D03*
X0005550D03*
Y0032594D03*
Y0032338D03*
Y0032082D03*
Y0031826D03*
Y0031570D03*
X0007210D03*
Y0031826D03*
Y0032082D03*
Y0032338D03*
Y0032594D03*
Y0032850D03*
X0001150D03*
Y0032594D03*
Y0032338D03*
Y0032082D03*
Y0031826D03*
Y0031570D03*
X0002810D03*
Y0031826D03*
Y0032082D03*
Y0032338D03*
Y0032594D03*
Y0032850D03*
G54D47*
X0020400Y0027050D03*
X0022400D03*
Y0029850D03*
X0020400D03*
Y0032100D03*
X0022400D03*
Y0034900D03*
X0020400D03*
G54D48*
X0016000Y0032650D03*
X0015000D03*
X0014000D03*
Y0031000D03*
X0015000D03*
X0016000D03*
G54D49*
X0000925Y0028380D03*
X0003175D03*
G54D50*
X0001050Y0027550D03*
X0002050D03*
X0003050D03*
Y0029210D03*
X0002050D03*
X0001050D03*
G54D51*
X0014250Y0026800D03*
X0014447D03*
X0014644D03*
X0014841D03*
X0015038D03*
Y0028460D03*
X0014841D03*
X0014644D03*
X0014447D03*
X0014250D03*
G54D53*
X0028015Y0028115D03*
X0028172D03*
X0028329D03*
X0028486D03*
X0028643D03*
X0028800D03*
X0028957D03*
X0029114D03*
X0029271D03*
X0029428D03*
Y0030065D03*
X0029271D03*
X0029114D03*
X0028957D03*
X0028800D03*
X0028643D03*
X0028486D03*
X0028329D03*
X0028172D03*
X0028015D03*
G54D54*
X0027750Y0029800D03*
Y0029643D03*
Y0029485D03*
Y0029328D03*
Y0029170D03*
Y0029013D03*
Y0028855D03*
Y0028698D03*
Y0028540D03*
Y0028383D03*
X0029700Y0029643D03*
Y0029485D03*
Y0029328D03*
Y0029170D03*
Y0029013D03*
Y0028855D03*
Y0028698D03*
Y0028540D03*
Y0028383D03*
Y0029800D03*
G54D55*
X0009244Y0028000D03*
X0008988D03*
X0008732D03*
X0008476D03*
X0008220D03*
X0007964D03*
X0007708D03*
Y0025870D03*
X0007964D03*
X0008220D03*
X0008476D03*
X0008732D03*
X0008988D03*
X0009244D03*
X0009500D03*
G54D56*
Y0028000D03*
G54D57*
X0014687Y0025337D03*
Y0025087D03*
Y0024837D03*
X0015312D03*
Y0025087D03*
Y0025337D03*
G54D58*
X0009320Y0022400D03*
X0002970D03*
G54D59*
X0010300Y0022150D03*
Y0022650D03*
Y0023150D03*
X0008340D03*
Y0022650D03*
Y0022150D03*
Y0021650D03*
X0003950Y0022150D03*
Y0022650D03*
Y0023150D03*
X0001990D03*
Y0022650D03*
Y0022150D03*
Y0021650D03*
G54D60*
X0010300D03*
X0003950D03*
G54D64*
X0032690Y0021575D03*
Y0022065D03*
Y0022555D03*
Y0023045D03*
G54D65*
X0035470Y0021230D03*
Y0023390D03*
G54D66*
X0035240Y0019630D03*
Y0024990D03*
G54D67*
X0006200Y0016275D03*
G54D68*
X0004730Y0014015D03*
X0004927D03*
X0005124D03*
X0005518D03*
X0005715D03*
X0005912D03*
X0006109D03*
X0006306D03*
X0006503D03*
X0006700D03*
X0006897D03*
X0007094D03*
X0007488D03*
X0007685D03*
Y0018530D03*
X0007291D03*
X0007094D03*
X0006897D03*
X0006700D03*
X0006503D03*
X0006306D03*
X0006109D03*
X0005912D03*
X0005715D03*
X0005321D03*
X0005124D03*
X0004927D03*
X0004730D03*
G54D69*
X0005321Y0014015D03*
X0007291D03*
X0007488Y0018530D03*
X0005518D03*
G54D70*
X0003950Y0017553D03*
Y0017356D03*
Y0017159D03*
Y0016962D03*
Y0016765D03*
Y0016568D03*
Y0016371D03*
Y0016174D03*
Y0015780D03*
Y0015583D03*
Y0015386D03*
Y0015189D03*
Y0014992D03*
Y0014795D03*
X0008465D03*
Y0014992D03*
Y0015189D03*
Y0015386D03*
Y0015583D03*
Y0015780D03*
Y0015977D03*
Y0016371D03*
Y0016568D03*
Y0016765D03*
Y0016962D03*
Y0017159D03*
Y0017356D03*
Y0017553D03*
Y0017750D03*
G54D71*
X0003950D03*
Y0015977D03*
X0008465Y0016174D03*
G54D72*
X0023350Y0014100D03*
X0023850D03*
X0024350D03*
Y0016700D03*
X0023850D03*
X0023350D03*
X0022850D03*
G54D73*
Y0014100D03*
G54D74*
X0017700Y0010150D03*
X0017503D03*
X0017306D03*
X0017109D03*
Y0009050D03*
X0017306D03*
X0017503D03*
X0017700D03*
X0016912Y0010148D03*
Y0009050D03*
X0012750Y0010150D03*
X0012553D03*
X0012356D03*
X0012159D03*
Y0009050D03*
X0012356D03*
X0012553D03*
X0012750D03*
X0011962Y0010148D03*
Y0009050D03*
X0007800Y0010150D03*
X0007603D03*
X0007406D03*
X0007209D03*
Y0009050D03*
X0007406D03*
X0007603D03*
X0007800D03*
X0007012Y0010148D03*
Y0009050D03*
X0002850Y0010150D03*
X0002653D03*
X0002456D03*
X0002259D03*
Y0009050D03*
X0002456D03*
X0002653D03*
X0002850D03*
X0002062Y0010148D03*
Y0009050D03*
G54D75*
X0017306Y0009600D03*
X0012356D03*
X0007406D03*
X0002456D03*
G54D76*
X0028431Y0007805D03*
X0035231D03*
G54D77*
X0027900Y0008100D03*
Y0007903D03*
Y0007706D03*
Y0007509D03*
X0028963D03*
Y0007706D03*
Y0007903D03*
Y0008100D03*
X0034700D03*
Y0007903D03*
Y0007706D03*
Y0007509D03*
X0035763D03*
Y0007706D03*
Y0007903D03*
Y0008100D03*
G54D92*
X0011200Y0042250D03*
X0013200D03*
X0007200D03*
X0009200D03*
X0003200D03*
X0005200D03*
G54D97*
X0038000Y0043000D03*
X0001000Y0001000D03*
X0038000D03*
X0001000Y0043000D03*
G54D98*
X0038300Y0028600D03*
X0034100Y0028550D03*
X0036050Y0032000D03*
X0011600Y0020200D03*
X0000900D03*
X0003250Y0026000D03*
Y0025000D03*
X0013950Y0029500D03*
X0014950D03*
X0006600Y0029300D03*
X0005600D03*
X0004600D03*
X0010500Y0030700D03*
X0006050D03*
X0001650D03*
X0012650Y0034600D03*
X0011400D03*
X0010150D03*
X0006550D03*
X0002900D03*
X0021050Y0037050D03*
X0014100Y0036950D03*
X0037150Y0038700D03*
X0033000D03*
X0029600D03*
X0024700D03*
X0013400Y0039300D03*
X0012400D03*
X0001600Y0040800D03*
X0000600D03*
X0035200Y0042400D03*
X0031050Y0042450D03*
X0026900Y0042400D03*
X0037000Y0003650D03*
X0033400D03*
X0029100D03*
X0025500D03*
G54D99*
X0037000Y0004900D03*
X0033400D03*
X0029100D03*
X0025500D03*
G54D100*
X0028725Y0029090D03*
G54D101*
X0017300Y0019650D03*
G54D102*
X0020263Y0017209D03*
Y0017366D03*
Y0017524D03*
Y0017681D03*
Y0017839D03*
Y0017996D03*
Y0018154D03*
Y0018311D03*
Y0018469D03*
Y0018626D03*
Y0018784D03*
Y0018941D03*
Y0019099D03*
Y0019256D03*
Y0019414D03*
Y0019571D03*
Y0019729D03*
Y0019886D03*
Y0020044D03*
Y0020201D03*
Y0020359D03*
Y0020516D03*
Y0020674D03*
Y0020831D03*
Y0020988D03*
Y0021146D03*
Y0021303D03*
Y0021461D03*
Y0021618D03*
Y0021776D03*
Y0021933D03*
Y0022091D03*
X0014337D03*
Y0021933D03*
Y0021776D03*
Y0021618D03*
Y0021461D03*
Y0021303D03*
Y0021146D03*
Y0020988D03*
Y0020831D03*
Y0020674D03*
Y0020516D03*
Y0020359D03*
Y0020201D03*
Y0020044D03*
Y0019886D03*
Y0019729D03*
Y0019571D03*
Y0019414D03*
Y0019256D03*
Y0019099D03*
Y0018941D03*
Y0018784D03*
Y0018626D03*
Y0018469D03*
Y0018311D03*
Y0018154D03*
Y0017996D03*
Y0017839D03*
Y0017681D03*
Y0017524D03*
Y0017366D03*
Y0017209D03*
G54D103*
X0014859Y0016687D03*
X0015016D03*
X0015174D03*
X0015331D03*
X0015489D03*
X0015646D03*
X0015804D03*
X0015961D03*
X0016119D03*
X0016276D03*
X0016434D03*
X0016591D03*
X0016749D03*
X0016906D03*
X0017064D03*
X0017221D03*
X0017379D03*
X0017536D03*
X0017694D03*
X0017851D03*
X0018009D03*
X0018166D03*
X0018324D03*
X0018481D03*
X0018638D03*
X0018796D03*
X0018953D03*
X0019111D03*
X0019268D03*
X0019426D03*
X0019583D03*
X0019741D03*
Y0022613D03*
X0019583D03*
X0019426D03*
X0019268D03*
X0019111D03*
X0018953D03*
X0018796D03*
X0018638D03*
X0018481D03*
X0018324D03*
X0018166D03*
X0018009D03*
X0017851D03*
X0017694D03*
X0017536D03*
X0017379D03*
X0017221D03*
X0017064D03*
X0016906D03*
X0016749D03*
X0016591D03*
X0016434D03*
X0016276D03*
X0016119D03*
X0015961D03*
X0015804D03*
X0015646D03*
X0015489D03*
X0015331D03*
X0015174D03*
X0015016D03*
X0014859D03*
M02*
