%
T1C0.0160F200S100
X000300Y003400
X000310Y024650
X000318Y028382
X000450Y037910
X000520Y025000
X000610Y031890
X000750Y017990
X000840Y031310
X000840Y032770
X001125Y016285
X001270Y022150
X001330Y010420
X001500Y011750
X001500Y014000
X001500Y017310
X001596Y037296
X001695Y019925
X001700Y004050
X001710Y009760
X001710Y011860
X001700Y019500
X001700Y024090
X001882Y010148
X001882Y010698
X001900Y015100
X001900Y016600
X001900Y020200
X001980Y028400
X002080Y020990
X002120Y013600
X002240Y010700
X002400Y015490
X002455Y030955
X002455Y035255
X002456Y008774
X002600Y018100
X002700Y002400
X002710Y010700
X002800Y014700
X002850Y021200
X003000Y020990
X003050Y010150
X003050Y010690
X003068Y032338
X003090Y034070
X003200Y012300
X003230Y009770
X003200Y043450
X003240Y011880
X003280Y012850
X003350Y016950
X003400Y009000
X003440Y035630
X003540Y017160
X003550Y018500
X003550Y019000
X003590Y010450
X003810Y009000
X003870Y025500
X003970Y020990
X004000Y037900
X004650Y023450
X004720Y012050
X004720Y013000
X004750Y037710
X004900Y013230
X004970Y031910
X005100Y028270
X005210Y031320
X005210Y032800
X005240Y022770
X005250Y003400
X005518Y013418
X005520Y018920
X005520Y020690
X005715Y013615
X005720Y019060
X005790Y035630
X005920Y009740
X005920Y011870
X006030Y020700
X006050Y030000
X006060Y030700
X006110Y013620
X006120Y018910
X006200Y012300
X006210Y020900
X006300Y010400
X006370Y022150
X006490Y021190
X006510Y014410
X006700Y004050
X006812Y010148
X006812Y010698
X007180Y010700
X007410Y008770
X007470Y027590
X007472Y032338
X007590Y037900
X007660Y010700
X007700Y033100
X007708Y028462
X007790Y025120
X007964Y023454
X007964Y028714
X008000Y010150
X008000Y010690
X008150Y012550
X008150Y020690
X008210Y009730
X008210Y011860
X008230Y026800
X008300Y032550
X008340Y037720
X008370Y009000
X008476Y028706
X008550Y010410
X008750Y009000
X008929Y015189
X008941Y017159
X009175Y019925
X009182Y014992
X009200Y017550
X009460Y020690
X009890Y020490
X009900Y014400
X009900Y026920
X009900Y027620
X010100Y033270
X010170Y035350
X010200Y003400
X010250Y020690
X010250Y025610
X010250Y027620
X010250Y029350
X010310Y037450
X010580Y020930
X010590Y012290
X010590Y015890
X010590Y018890
X010630Y021190
X010640Y023780
X010791Y017159
X010800Y017550
X010990Y029610
X011000Y011570
X011240Y015000
X011250Y010430
X011409Y015189
X011600Y009750
X011600Y011790
X011700Y004050
X011740Y029300
X011750Y027000
X011750Y027530
X011772Y010148
X011772Y010698
X011950Y035350
X012000Y032850
X012100Y037450
X012130Y010700
X012360Y008760
X012390Y015520
X012490Y035630
X012620Y010700
X012920Y010690
X012930Y010150
X012996Y016226
X013010Y024060
X013100Y009750
X013100Y011990
X013160Y021150
X013200Y016640
X013200Y018150
X013200Y022650
X013160Y028110
X013270Y023270
X013300Y009000
X013470Y017030
X013500Y010300
X013470Y030990
X013590Y014580
X013650Y026860
X013700Y009000
X013800Y014830
X013970Y027690
X013970Y028110
X014100Y024060
X014100Y024660
X014100Y025390
X014100Y025910
X014150Y014840
X014150Y016410
X014350Y017020
X014400Y025100
X014530Y023490
X014630Y024630
X014700Y015040
X014740Y021620
X014750Y023810
X014740Y024250
X014740Y035400
X014740Y037200
X014790Y019890
X014790Y020830
X014840Y016230
X014840Y027400
X014940Y022030
X014970Y017360
X014970Y017640
X015050Y024240
X015150Y003400
X015174Y022026
X015190Y017770
X015200Y014840
X015230Y025620
X015370Y027970
X015396Y016226
X015400Y017940
X015580Y022160
X015400Y023680
X015400Y024230
X015580Y025100
X015400Y026620
X015610Y014860
X015650Y017130
X015750Y042970
X015800Y023750
X015830Y016250
X015850Y015550
X015910Y025590
X016020Y023080
X016080Y016250
X016200Y010400
X016250Y033560
X016300Y016250
X016550Y017310
X016560Y015030
X016620Y027970
X016650Y027400
X016660Y004060
X016730Y010170
X016730Y010700
X016740Y016250
X016850Y024430
X016906Y017126
X016909Y022161
X016950Y015550
X017000Y034310
X017100Y010700
X017270Y024390
X017290Y031020
X017306Y008754
X017310Y023750
X017500Y042100
X017550Y010700
X017600Y037700
X017600Y038440
X017605Y039425
X017690Y022160
X017700Y017130
X017900Y010150
X017900Y010700
X017960Y017360
X018045Y039425
X018070Y009750
X018070Y011700
X018180Y017350
X018250Y009000
X018380Y027970
X018450Y010390
X018480Y015560
X018700Y009000
X018700Y016090
X018750Y017550
X018700Y026250
X018700Y029320
X018700Y030800
X018800Y023740
X018950Y013210
X018990Y016100
X019000Y014950
X019010Y024810
X019150Y017130
X019200Y014780
X019430Y022160
X019430Y024810
X019510Y017410
X019583Y016103
X019600Y017640
X019610Y017880
X019610Y018120
X019610Y018360
X019600Y021800
X019660Y026050
X019820Y018620
X019820Y020200
X019821Y018941
X019870Y014750
X019950Y015560
X020068Y025612
X020290Y012110
X020410Y015340
X020740Y023290
X020770Y019230
X020776Y018784
X020790Y019010
X021050Y040090
X021050Y043010
X021100Y017130
X021130Y023490
X021133Y023166
X021300Y023990
X021340Y016650
X021340Y020400
X021300Y040730
X021341Y021909
X021341Y022651
X021496Y025466
X021656Y018784
X021720Y023490
X022140Y024670
X022150Y026050
X022228Y039986
X022350Y019410
X022400Y023760
X022663Y025466
X022710Y020100
X022730Y015770
X023170Y024880
X023172Y025788
X023330Y015100
X023360Y017370
X023500Y039986
X023690Y019580
X023700Y023170
X023840Y015090
X024160Y026620
X024280Y023390
X024290Y036190
X024310Y041690
X024490Y035150
X024640Y019680
X024710Y018870
X024720Y023390
X024710Y023760
X024790Y019130
X024810Y019370
X024910Y019960
X025132Y041692
X025890Y033320
X026240Y008160
X026690Y033910
X026920Y033490
X027120Y033910
X027180Y039300
X027390Y026640
X027500Y038900
X027570Y028710
X027688Y041698
X027800Y032090
X027820Y006500
X027910Y035980
X027910Y036380
X028172Y010732
X028172Y026962
X028360Y027130
X028470Y010400
X028650Y039300
X028930Y026940
X028963Y006777
X028963Y008253
X029110Y027130
X029220Y039300
X029480Y027520
X029660Y033910
X029730Y041450
X029860Y032090
X029930Y029010
X029990Y029270
X030010Y022050
X029990Y041700
X030160Y026640
X030200Y021570
X030380Y037410
X030590Y021210
X030620Y008160
X030630Y036170
X030650Y027850
X030930Y037610
X031400Y027860
X031400Y031830
X031400Y035220
X031520Y039300
X031600Y029300
X031600Y032100
X031860Y021580
X031870Y022050
X032030Y041450
X032288Y041698
X033000Y008160
X033170Y039760
X033340Y032150
X033340Y035280
X033340Y037200
X033580Y038710
X033820Y039500
X034060Y033520
X034250Y010720
X034332Y041192
X034650Y006500
X035306Y035536
X035460Y041260
X035500Y010710
X035512Y035792
X035760Y006780
X035763Y008253
X035850Y039470
X036000Y028640
X036000Y029300
X036150Y041700
X036350Y008300
X037420Y008170
X037660Y037120
X038180Y039240
X038390Y007590
X038390Y008410
X038460Y038040
X038700Y037590
T2C0.0170F200S100
X000500Y005500
X000750Y009000
X000750Y012000
X000500Y012500
X000750Y013000
X000750Y014000
X000750Y015000
X000750Y021000
X000750Y022000
X000750Y024000
X000500Y029500
X000750Y030000
X000500Y030500
X000750Y031000
X000500Y033500
X000750Y034000
X000500Y035500
X000750Y037000
X001000Y003500
X001250Y003000
X001250Y004000
X001000Y004500
X001250Y005000
X001000Y005500
X001000Y011500
X001250Y012000
X001000Y012500
X001250Y013000
X001250Y014000
X001000Y014500
X001250Y015000
X001000Y018500
X001250Y021000
X001250Y030000
X001000Y030500
X001000Y033500
X001250Y034000
X001500Y023500
X001500Y031500
X001500Y032500
X001500Y033500
X001500Y038500
X001750Y006000
X001750Y007000
X001750Y008000
X001750Y030000
X001750Y034000
X001750Y039000
X002000Y020500
X002000Y023500
X002000Y031500
X002000Y033500
X002000Y038500
X002250Y001000
X002250Y013000
X002250Y025000
X002250Y030000
X002250Y034000
X002250Y039000
X002250Y040000
X002250Y042000
X002250Y043000
X002330Y016010
X002500Y000500
X002500Y001500
X002500Y006500
X002500Y007500
X002500Y011500
X002500Y012500
X002500Y037500
X002500Y038500
X002500Y040500
X002500Y042500
X002500Y043500
X002750Y001000
X003000Y000500
X003000Y001500
X003000Y008500
X003000Y023500
X002750Y030000
X003000Y030500
X002750Y031000
X003000Y035500
X002750Y036000
X002750Y037000
X002750Y039000
X002750Y040000
X003000Y040500
X002750Y043000
X003250Y001000
X003500Y003500
X003500Y004500
X003500Y005500
X003250Y006000
X003250Y007000
X003250Y008000
X003500Y008500
X003500Y020500
X003500Y023500
X003250Y024000
X003250Y030000
X003500Y037500
X003250Y039000
X003250Y040000
X003500Y040500
X003750Y003000
X004000Y000500
X004000Y003500
X004000Y004500
X004000Y005500
X004000Y011500
X004000Y018500
X004000Y019500
X004000Y020500
X003750Y024000
X004000Y033500
X004000Y036500
X004000Y038500
X003750Y039000
X004000Y039500
X003750Y040000
X004000Y040500
X003750Y041000
X004000Y042500
X003750Y043000
X004250Y018000
X004250Y019000
X004250Y021000
X004500Y015500
X004500Y016500
X004500Y017500
X004500Y018500
X004500Y020500
X004500Y028500
X004500Y033500
X004500Y038500
X004250Y039000
X004500Y039500
X004250Y040000
X004500Y040500
X004250Y041000
X004250Y042000
X004500Y042500
X004250Y043000
X004750Y001000
X004750Y003000
X004750Y005000
X004750Y006000
X004750Y007000
X004750Y008000
X004750Y010000
X004750Y015000
X004750Y016000
X004750Y017000
X004750Y018000
X004750Y021000
X004800Y032490
X004750Y041000
X004750Y043000
X005000Y000500
X005000Y001500
X005000Y003500
X005000Y004500
X005000Y005500
X005000Y006500
X005000Y007500
X005000Y008500
X005000Y009500
X005000Y010500
X005000Y011500
X005140Y012230
X005000Y017500
X005000Y020500
X005000Y028500
X005000Y030500
X005000Y033500
X005250Y001000
X005500Y000500
X005500Y001500
X005250Y005000
X005250Y006000
X005250Y007000
X005250Y008000
X005250Y015000
X005500Y017500
X005250Y018000
X005500Y028500
X005500Y030500
X005500Y033500
X005500Y036500
X005500Y040500
X005250Y043000
X005750Y001000
X006000Y000500
X006000Y001500
X006000Y003500
X006000Y004500
X006000Y005500
X005750Y015000
X006000Y017500
X005750Y018000
X006000Y031500
X006000Y033500
X006000Y034500
X005750Y036000
X006000Y038500
X006000Y040500
X005750Y041000
X006000Y042500
X005750Y043000
X006250Y001000
X006500Y000500
X006500Y001500
X006250Y003000
X006250Y005000
X006500Y008500
X006500Y013500
X006250Y015000
X006500Y017500
X006250Y018000
X006500Y021500
X006500Y028500
X006500Y031500
X006500Y033500
X006250Y036000
X006250Y037000
X006500Y038500
X006250Y039000
X006250Y040000
X006500Y040500
X006250Y041000
X006250Y042000
X006500Y042500
X006250Y043000
X006750Y001000
X007000Y000500
X007000Y001500
X006750Y006000
X006750Y007000
X006750Y008000
X007000Y014500
X006750Y015000
X007000Y017500
X006750Y018000
X007000Y019500
X007000Y028500
X006750Y030000
X007000Y030500
X006750Y031000
X007000Y033500
X006750Y034000
X006750Y039000
X006750Y040000
X007000Y040500
X006750Y041000
X006750Y043000
X007050Y012290
X007250Y001000
X007250Y015000
X007250Y018000
X007250Y019000
X007250Y021000
X007250Y026000
X007250Y031000
X007250Y034000
X007250Y035000
X007250Y036000
X007250Y039000
X007250Y040000
X007250Y041000
X007500Y006500
X007500Y007500
X007500Y013500
X007500Y014500
X007500Y015500
X007500Y016500
X007500Y017500
X007740Y020210
X007500Y022500
X007500Y033500
X007500Y036500
X007500Y040500
X007750Y015000
X007750Y016000
X007750Y017000
X007750Y018000
X007750Y021000
X007750Y030000
X007750Y039000
X007750Y040000
X007750Y041000
X007750Y043000
X008000Y000500
X008000Y001500
X008000Y008500
X008000Y013500
X008000Y014500
X008000Y015500
X008000Y016500
X008000Y017500
X008000Y018500
X008000Y038500
X008000Y039500
X008000Y040500
X008000Y042500
X008250Y006000
X008250Y007000
X008250Y008000
X008500Y003500
X008500Y004500
X008500Y005500
X008500Y008500
X008500Y013500
X008250Y014000
X008500Y014500
X008250Y018000
X008250Y019000
X008250Y021000
X008500Y023500
X008500Y033500
X008250Y039000
X008500Y039500
X008250Y040000
X008500Y040500
X008250Y041000
X008250Y042000
X008500Y042500
X008250Y043000
X008750Y003000
X009000Y000500
X009000Y001500
X009000Y003500
X009000Y004500
X009000Y005500
X009000Y013500
X008750Y014000
X009000Y014500
X009000Y018500
X008750Y030000
X009000Y030500
X008750Y031000
X008750Y032000
X008750Y033000
X009000Y033500
X009000Y036500
X008750Y041000
X008750Y043000
X009250Y014000
X009500Y000500
X009250Y030000
X009500Y030500
X009500Y033500
X009500Y034500
X009250Y036000
X009500Y036500
X009500Y037500
X009500Y039500
X009500Y040500
X009250Y043000
X009750Y001000
X010000Y000500
X010000Y001500
X009750Y003000
X010000Y004500
X009750Y005000
X010000Y005500
X009750Y006000
X010000Y006500
X009750Y007000
X010000Y007500
X009750Y008000
X010000Y008500
X010000Y009500
X009750Y010000
X010000Y010500
X010000Y011500
X010000Y012500
X009750Y036000
X009750Y037000
X010000Y038500
X009750Y039000
X010000Y039500
X009750Y040000
X010000Y040500
X009750Y041000
X010000Y042500
X009750Y043000
X010250Y001000
X010500Y000500
X010500Y001500
X010500Y005500
X010250Y012000
X010250Y013000
X010250Y014000
X010250Y020000
X010250Y030000
X010500Y031500
X010500Y033500
X010500Y036500
X010250Y039000
X010250Y040000
X010500Y040500
X010250Y041000
X010250Y042000
X010500Y042500
X010250Y043000
X010750Y001000
X011000Y000500
X011000Y001500
X010750Y003000
X011000Y003500
X011000Y004500
X011000Y005500
X011000Y023500
X011000Y025500
X010750Y030000
X011000Y031500
X010750Y033000
X011000Y033500
X010750Y034000
X010750Y035000
X010750Y036000
X010750Y039000
X011000Y040500
X010750Y043000
X011250Y001000
X011500Y000500
X011500Y001500
X011250Y003000
X011250Y005000
X011500Y008500
X011500Y015500
X011250Y016000
X011250Y017000
X011500Y017500
X011250Y018000
X011500Y018500
X011250Y019000
X011500Y019500
X011500Y023500
X011500Y025500
X011500Y027500
X011250Y030000
X011500Y030500
X011250Y031000
X011250Y033000
X011250Y036000
X011250Y040000
X011500Y040500
X011250Y041000
X011250Y043000
X011750Y001000
X012000Y000500
X012000Y001500
X011750Y008000
X011750Y013000
X011750Y014000
X012000Y014500
X012000Y017500
X011750Y018000
X012000Y018500
X011750Y019000
X012000Y019500
X012000Y023500
X011750Y029000
X011750Y030000
X011750Y031000
X011750Y034000
X011750Y037000
X011750Y038000
X012000Y038500
X011750Y039000
X011750Y040000
X012000Y040500
X011750Y041000
X012000Y042500
X011750Y043000
X012250Y001000
X012500Y007500
X012500Y014500
X012250Y016000
X012250Y017000
X012500Y017500
X012250Y018000
X012500Y018500
X012250Y019000
X012500Y019500
X012250Y020000
X012500Y020500
X012250Y021000
X012500Y021500
X012250Y022000
X012500Y022500
X012250Y023000
X012500Y023500
X012500Y024500
X012500Y025500
X012500Y026500
X012250Y030000
X012250Y034000
X012500Y037500
X012500Y038500
X012250Y042000
X012500Y042500
X012250Y043000
X012750Y020000
X012750Y023000
X012750Y026000
X012890Y016910
X012750Y036000
X012750Y040000
X012750Y041000
X012750Y043000
X013000Y000500
X013000Y001500
X013250Y008000
X013000Y008500
X013000Y014500
X013000Y018500
X013000Y021500
X013250Y023000
X013000Y023500
X013000Y024500
X013000Y025500
X013000Y026500
X013250Y027000
X013000Y028500
X013250Y029000
X013000Y032500
X013000Y038500
X013000Y040500
X013250Y043000
X013500Y003500
X013750Y003000
X013500Y004500
X013500Y005500
X013500Y008500
X013500Y031500
X013750Y032000
X013500Y032500
X013500Y033500
X013750Y038000
X013750Y040000
X013750Y041000
X013750Y043000
X014000Y000500
X014000Y001500
X014000Y003500
X014000Y005500
X014000Y023490
X014000Y028500
X014250Y032000
X014000Y033500
X014000Y037500
X014000Y040500
X014250Y041000
X014000Y041500
X014250Y042000
X014000Y042500
X014250Y043000
X014350Y015260
X014500Y000500
X014500Y001500
X014500Y003500
X014500Y005500
X014500Y030500
X014500Y031500
X014500Y032500
X014500Y033500
X014500Y034500
X014500Y037500
X014500Y040500
X014500Y041500
X014500Y042500
X014750Y001000
X014750Y003000
X014750Y005000
X014750Y006000
X014750Y007000
X014750Y008000
X014750Y010000
X014840Y025590
X014750Y032000
X014750Y035000
X014750Y038000
X014750Y043000
X015000Y000500
X015250Y001000
X015000Y001500
X015000Y004500
X015000Y005500
X015000Y006500
X015250Y007000
X015000Y007500
X015000Y008500
X015000Y009500
X015000Y010500
X015250Y032000
X015000Y033500
X015000Y034500
X015000Y038500
X015000Y040500
X015250Y041000
X015250Y043000
X015500Y000500
X015750Y001000
X015500Y001500
X015750Y003000
X015500Y005500
X015750Y007000
X015750Y018000
X015750Y019000
X015750Y020000
X015750Y021000
X015750Y029000
X015750Y032000
X015500Y034500
X015500Y040500
X015500Y041500
X015500Y042500
X015820Y015260
X016000Y000500
X016000Y001500
X016000Y003500
X016000Y004500
X016000Y005500
X016000Y018500
X016000Y019500
X016000Y020500
X016000Y021500
X016000Y026500
X016000Y033500
X016000Y041500
X016250Y001000
X016250Y003000
X016250Y005000
X016250Y007000
X016500Y008500
X016250Y018000
X016500Y018500
X016250Y021000
X016500Y021500
X016500Y026500
X016500Y031500
X016500Y032500
X016500Y033500
X016500Y038500
X016500Y041500
X016750Y007000
X016750Y008000
X016750Y018000
X016750Y021000
X016920Y023490
X016750Y037000
X016750Y038000
X016750Y040000
X016750Y043000
X017000Y000500
X017000Y001500
X017250Y007000
X017250Y018000
X017000Y018500
X017250Y021000
X017000Y021500
X017250Y027000
X017250Y029000
X017000Y033500
X017000Y036500
X017250Y037000
X017000Y037500
X017250Y038780
X017250Y040000
X017000Y040500
X017000Y041500
X017250Y042000
X017000Y042500
X017260Y027630
X017330Y015260
X017420Y034280
X017500Y007500
X017500Y018500
X017500Y021500
X017500Y026500
X017500Y030500
X017500Y032500
X017500Y035500
X017680Y023490
X017750Y018000
X017750Y021000
X017750Y029000
X017750Y030000
X018000Y000500
X018000Y001500
X018000Y008500
X018000Y018500
X018000Y021500
X018130Y024890
X018000Y032500
X018000Y033500
X018000Y035500
X018000Y036500
X018250Y007000
X018250Y008000
X018250Y012000
X018250Y018000
X018250Y021000
X018250Y029000
X018250Y030000
X018250Y032000
X018250Y037000
X018500Y000500
X018500Y001500
X018500Y003500
X018500Y005500
X018500Y018500
X018500Y019500
X018500Y020500
X018500Y021500
X018500Y031500
X018500Y032500
X018500Y033500
X018500Y034500
X018500Y035500
X018750Y007000
X018750Y012000
X018750Y018000
X018750Y019000
X018750Y020000
X018750Y021000
X018750Y026000
X018750Y035000
X018750Y037000
X019000Y000500
X019000Y001500
X019000Y005500
X019000Y018500
X019000Y019500
X019000Y020500
X019000Y021500
X019000Y041500
X019250Y007000
X019500Y000500
X019500Y001500
X019500Y003500
X019500Y005500
X019500Y027500
X019500Y028500
X019500Y029500
X019500Y030500
X019500Y031500
X019500Y032500
X019500Y033500
X019500Y034500
X019250Y036000
X019250Y037000
X019500Y037500
X019500Y038500
X019500Y040500
X019500Y041500
X019250Y042000
X019500Y042500
X019750Y001000
X020000Y000500
X020000Y001500
X019750Y003000
X020000Y003500
X019750Y010000
X019750Y011000
X020000Y022500
X020000Y027500
X019750Y028000
X020000Y028500
X019750Y029000
X020000Y029500
X019750Y030000
X020000Y031500
X020000Y032500
X019750Y033000
X020000Y033500
X020000Y034500
X019750Y035000
X019750Y037000
X020000Y037500
X019750Y039000
X020250Y001000
X020500Y000500
X020500Y001500
X020250Y003000
X020500Y003500
X020250Y004000
X020500Y004500
X020500Y008500
X020500Y022500
X020250Y024000
X020250Y028000
X020500Y028500
X020250Y029000
X020500Y030500
X020500Y031500
X020250Y033000
X020500Y033500
X020250Y037000
X020500Y037500
X020250Y043000
X020750Y001000
X020750Y003000
X020750Y004000
X020830Y025460
X020750Y028000
X020750Y029000
X020750Y033000
X021000Y000500
X021250Y001000
X021000Y001500
X021250Y003000
X021000Y003500
X021250Y004000
X021000Y004500
X021000Y008500
X021250Y027000
X021000Y027500
X021250Y028000
X021000Y028500
X021250Y029000
X021000Y029500
X021250Y030000
X021000Y030500
X021250Y031000
X021000Y031500
X021250Y032000
X021000Y032500
X021250Y033000
X021000Y033500
X021000Y034500
X021250Y035000
X021500Y003500
X021500Y004500
X021500Y008500
X021750Y016000
X021750Y017000
X021750Y020000
X021750Y027000
X021750Y028000
X021750Y029000
X021500Y030500
X021750Y031000
X021500Y031500
X021750Y032000
X021500Y032500
X021750Y033000
X021500Y033500
X021500Y034500
X021750Y035000
X021750Y038000
X021750Y041000
X021750Y042000
X021500Y042500
X022000Y000500
X022000Y001500
X022000Y002500
X022000Y003500
X022000Y004500
X022000Y012500
X022250Y016000
X022250Y017000
X022250Y018000
X022250Y020000
X022000Y020500
X022250Y021000
X022000Y021500
X022250Y022000
X022000Y022500
X022000Y027500
X022250Y028000
X022000Y028500
X022250Y029000
X022000Y029500
X022000Y030500
X022250Y031000
X022000Y031500
X022000Y032500
X022250Y033000
X022000Y033500
X022000Y034500
X022250Y036000
X022000Y038500
X022250Y042000
X022000Y042500
X022500Y002500
X022750Y003000
X022500Y003500
X022750Y004000
X022500Y004500
X022750Y013000
X022750Y016000
X022750Y018000
X022500Y021500
X022750Y028000
X022500Y028500
X022750Y029000
X022500Y030500
X022750Y031000
X022500Y031500
X022750Y033000
X022500Y033500
X022750Y036000
X022500Y036500
X022750Y042000
X022500Y042500
X023000Y000500
X023000Y001500
X023000Y002500
X023000Y003500
X023000Y004500
X023250Y010000
X023250Y011000
X023250Y012000
X023000Y012500
X023250Y013000
X023000Y021500
X023000Y025500
X023250Y027000
X023000Y027500
X023250Y028000
X023000Y028500
X023250Y029000
X023000Y029500
X023000Y030500
X023000Y031500
X023000Y032500
X023000Y033500
X023000Y034500
X023250Y036000
X023000Y036500
X023250Y041000
X023250Y042000
X023000Y042500
X023250Y043000
X023500Y000500
X023500Y001500
X023750Y002000
X023500Y002500
X023750Y003000
X023500Y003500
X023750Y004000
X023500Y004500
X023750Y005000
X023750Y006000
X023750Y007000
X023750Y008000
X023750Y009000
X023750Y010000
X023750Y011000
X023750Y012000
X023500Y012500
X023750Y013000
X023750Y027000
X023500Y027500
X023750Y028000
X023500Y028500
X023750Y029000
X023500Y029500
X023750Y030000
X023500Y030500
X023750Y031000
X023500Y031500
X023750Y032000
X023500Y032500
X023750Y033000
X023500Y033500
X023500Y034500
X023750Y035000
X023500Y036500
X023750Y038000
X023500Y038500
X023500Y041500
X023500Y042500
X024000Y000500
X024000Y001500
X024000Y002500
X024000Y003500
X024250Y004000
X024000Y004500
X024250Y005000
X024000Y005500
X024250Y006000
X024000Y006500
X024250Y007000
X024000Y007500
X024250Y008000
X024250Y009000
X024250Y010000
X024250Y011000
X024000Y011500
X024250Y012000
X024000Y012500
X024250Y013000
X024250Y015000
X024250Y018000
X024000Y021500
X024250Y023000
X024250Y027000
X024000Y027500
X024250Y028000
X024000Y028500
X024250Y029000
X024000Y029500
X024250Y030000
X024000Y030500
X024250Y031000
X024000Y031500
X024250Y032000
X024000Y032500
X024000Y033500
X024000Y034500
X024000Y038500
X024000Y040500
X024000Y041500
X024000Y042500
X024500Y000500
X024750Y001000
X024500Y001500
X024750Y002000
X024500Y002500
X024750Y003000
X024750Y004000
X024500Y004500
X024750Y005000
X024500Y005500
X024750Y006000
X024500Y006500
X024750Y007000
X024500Y007500
X024750Y008000
X024750Y009000
X024750Y010000
X024750Y011000
X024500Y011500
X024750Y012000
X024500Y012500
X024750Y013000
X024750Y014000
X024750Y015000
X024750Y016000
X024750Y017000
X024500Y017500
X024750Y018000
X024500Y018500
X024500Y025500
X024500Y026500
X024500Y027500
X024500Y028500
X024500Y029500
X024500Y030500
X024500Y031500
X024500Y032500
X024500Y035500
X024500Y036500
X024750Y037000
X024750Y038000
X024750Y040000
X024500Y040500
X024750Y041000
X024750Y043000
X025000Y002500
X025250Y001000
X025250Y002000
X025250Y003000
X025000Y005500
X025250Y006000
X025000Y006500
X025250Y007000
X025000Y007500
X025250Y008000
X025250Y009000
X025000Y033500
X025250Y038000
X025250Y039000
X025250Y040000
X025250Y041000
X025000Y043500
X025500Y002500
X025750Y002000
X025750Y003000
X025500Y005500
X025500Y006500
X025750Y010000
X025750Y011000
X025750Y012000
X025750Y013000
X025750Y014000
X025750Y015000
X025750Y016000
X025750Y017000
X025750Y018000
X025750Y020000
X025750Y021000
X025750Y022000
X025750Y023000
X025750Y024000
X025750Y025000
X025750Y026000
X025750Y027000
X025750Y028000
X025500Y028500
X025750Y029000
X025500Y029500
X025750Y030000
X025500Y030500
X025750Y031000
X025500Y031500
X025750Y032000
X025500Y032500
X025750Y033000
X025500Y033500
X025750Y038000
X025750Y040000
X025750Y041000
X025500Y043500
X026000Y002500
X026250Y002000
X026250Y003000
X026250Y004000
X026250Y005000
X026000Y005500
X026250Y006000
X026000Y006500
X026250Y007000
X026250Y010000
X026000Y010500
X026250Y011000
X026000Y011500
X026250Y012000
X026000Y012500
X026250Y013000
X026000Y013500
X026250Y014000
X026000Y014500
X026250Y015000
X026000Y015500
X026250Y016000
X026000Y016500
X026250Y017000
X026000Y017500
X026250Y018000
X026000Y018500
X026000Y019500
X026250Y020000
X026000Y020500
X026250Y021000
X026000Y021500
X026250Y022000
X026000Y022500
X026250Y023000
X026000Y023500
X026250Y024000
X026000Y024500
X026250Y025000
X026000Y025500
X026250Y026000
X026000Y026500
X026250Y027000
X026250Y028000
X026000Y028500
X026000Y029500
X026000Y030500
X026250Y031000
X026000Y031500
X026250Y032000
X026000Y032500
X026250Y033000
X026250Y038000
X026000Y038500
X026250Y040000
X026000Y040500
X026250Y041000
X026000Y043500
X026500Y002500
X026750Y002000
X026750Y003000
X026500Y003500
X026750Y004000
X026500Y004500
X026750Y005000
X026500Y005500
X026750Y006000
X026500Y006500
X026750Y007000
X026750Y010000
X026500Y010500
X026750Y011000
X026500Y011500
X026750Y012000
X026500Y012500
X026750Y013000
X026500Y013500
X026750Y014000
X026500Y014500
X026750Y015000
X026500Y015500
X026750Y016000
X026500Y016500
X026750Y017000
X026500Y017500
X026750Y018000
X026500Y018500
X026500Y019500
X026750Y020000
X026500Y020500
X026750Y021000
X026500Y021500
X026750Y022000
X026500Y022500
X026750Y023000
X026500Y023500
X026750Y024000
X026500Y024500
X026750Y025000
X026500Y025500
X026750Y026000
X026500Y026500
X026750Y027000
X026750Y028000
X026750Y031000
X026500Y031500
X026750Y032000
X026500Y032500
X026750Y033000
X026500Y033500
X026750Y040000
X026750Y041000
X026750Y043000
X026500Y043500
X027000Y000500
X027000Y001500
X027250Y002000
X027000Y002500
X027250Y003000
X027000Y003500
X027250Y004000
X027000Y004500
X027250Y005000
X027000Y005500
X027250Y006000
X027000Y006500
X027250Y007000
X027250Y010000
X027250Y011000
X027000Y011500
X027250Y012000
X027000Y012500
X027250Y013000
X027000Y013500
X027250Y014000
X027000Y014500
X027250Y015000
X027000Y015500
X027250Y016000
X027000Y016500
X027250Y017000
X027000Y017500
X027250Y018000
X027000Y018500
X027000Y019500
X027250Y020000
X027000Y020500
X027250Y021000
X027000Y021500
X027250Y022000
X027000Y022500
X027250Y023000
X027000Y023500
X027250Y024000
X027000Y024500
X027250Y025000
X027000Y025500
X027250Y026000
X027000Y026500
X027000Y031500
X027000Y032500
X027250Y038000
X027250Y040000
X027250Y041000
X027250Y043000
X027000Y043500
X027500Y000500
X027500Y001500
X027500Y002500
X027500Y003500
X027750Y004000
X027500Y004500
X027750Y005000
X027500Y005500
X027750Y006000
X027750Y007000
X027750Y010000
X027750Y011000
X027500Y011500
X027750Y012000
X027500Y012500
X027750Y013000
X027500Y013500
X027750Y014000
X027500Y014500
X027750Y015000
X027500Y015500
X027750Y016000
X027500Y016500
X027750Y017000
X027500Y017500
X027750Y018000
X027500Y018500
X027500Y019500
X027750Y020000
X027500Y020500
X027750Y021000
X027500Y021500
X027750Y022000
X027500Y022500
X027750Y023000
X027500Y023500
X027750Y024000
X027500Y024500
X027750Y025000
X027500Y025500
X027750Y026000
X027750Y028000
X027750Y030000
X027750Y033000
X027750Y038000
X027500Y038500
X027750Y040000
X027750Y041000
X027500Y042500
X027500Y043500
X028000Y000500
X028250Y001000
X028250Y002000
X028250Y003000
X028250Y004000
X028000Y004500
X028250Y005000
X028000Y005500
X028250Y006000
X028250Y010000
X028000Y011500
X028000Y012500
X028000Y013500
X028000Y014500
X028000Y015500
X028000Y016500
X028000Y017500
X028000Y018500
X028000Y019500
X028000Y020500
X028000Y021500
X028000Y022500
X028000Y023500
X028000Y024500
X028000Y025500
X028000Y030500
X028000Y032500
X028250Y038000
X028250Y039000
X028250Y040000
X028250Y041000
X028250Y043000
X028000Y043500
X028500Y000500
X028750Y001000
X028500Y001500
X028750Y002000
X028500Y002500
X028750Y003000
X028500Y004500
X028500Y005500
X028750Y006000
X028750Y011000
X028750Y012000
X028750Y013000
X028750Y014000
X028750Y015000
X028750Y016000
X028750Y017000
X028750Y018000
X028750Y020000
X028750Y021000
X028750Y022000
X028750Y023000
X028750Y024000
X028750Y025000
X028750Y026000
X028750Y031000
X028750Y033000
X028750Y038000
X028750Y040000
X028500Y040500
X028750Y041000
X028500Y043500
X029000Y000500
X029250Y001000
X029000Y001500
X029250Y002000
X029000Y002500
X029250Y003000
X029000Y005500
X029250Y006000
X029250Y007000
X029250Y010000
X029250Y011000
X029000Y030500
X029250Y031000
X029000Y031500
X029000Y032500
X029250Y033000
X029000Y033500
X029000Y036500
X029250Y037000
X029250Y038000
X029000Y038500
X029250Y040000
X029000Y040500
X029250Y041000
X029000Y043500
X029500Y000500
X029500Y001500
X029500Y002500
X029500Y005500
X029550Y008200
X029500Y012500
X029500Y013500
X029500Y014500
X029500Y015500
X029500Y016500
X029500Y017500
X029500Y018500
X029500Y019500
X029500Y020500
X029500Y021500
X029500Y022500
X029500Y023500
X029500Y024500
X029500Y025500
X029500Y030500
X029500Y032500
X029500Y033500
X029500Y043500
X029750Y001000
X030000Y000500
X030000Y001500
X029750Y002000
X030000Y002500
X029750Y003000
X030000Y003500
X029750Y004000
X030000Y004500
X030000Y005500
X029750Y006000
X029750Y007000
X029750Y010000
X029750Y011000
X029750Y012000
X030000Y012500
X029750Y013000
X030000Y013500
X029750Y014000
X030000Y014500
X029750Y015000
X030000Y015500
X029750Y016000
X030000Y016500
X029750Y017000
X030000Y017500
X029750Y018000
X030000Y018500
X029750Y020000
X029750Y021000
X029750Y022000
X030000Y022500
X029750Y023000
X030000Y023500
X029750Y024000
X030000Y024500
X029750Y025000
X030000Y025500
X029750Y026000
X029750Y028000
X030000Y030500
X029750Y040000
X029750Y041000
X029750Y043000
X030000Y043500
X030250Y001000
X030250Y002000
X030500Y002500
X030250Y003000
X030500Y003500
X030250Y004000
X030500Y004500
X030500Y005500
X030250Y006000
X030250Y007000
X030250Y010000
X030500Y010500
X030250Y011000
X030250Y012000
X030500Y012500
X030250Y013000
X030500Y013500
X030250Y014000
X030500Y014500
X030250Y015000
X030500Y015500
X030250Y016000
X030500Y016500
X030250Y017000
X030500Y017500
X030250Y018000
X030500Y018500
X030250Y040000
X030250Y041000
X030500Y042500
X030500Y043500
X030660Y019780
X030750Y002000
X030750Y003000
X030750Y004000
X030750Y006000
X030750Y007000
X030750Y010000
X030750Y011000
X030750Y012000
X030750Y013000
X030750Y014000
X030750Y015000
X030750Y016000
X030750Y017000
X030750Y018000
X030750Y025000
X030750Y026000
X030750Y033000
X030750Y037000
X030750Y043000
X031000Y000500
X031000Y001500
X031250Y002000
X031000Y002500
X031250Y003000
X031000Y003500
X031250Y004000
X031000Y004500
X031250Y005000
X031250Y006000
X031250Y007000
X031250Y010000
X031000Y010500
X031250Y011000
X031250Y012000
X031000Y012500
X031250Y013000
X031000Y013500
X031250Y014000
X031000Y014500
X031250Y015000
X031000Y015500
X031250Y016000
X031000Y016500
X031250Y017000
X031000Y017500
X031250Y018000
X031000Y018500
X031250Y026000
X031000Y026500
X031000Y030500
X031000Y031500
X031000Y032500
X031000Y033500
X031000Y034500
X031000Y036500
X031250Y041000
X031250Y043000
X031000Y043500
X031500Y002500
X031750Y002000
X031750Y003000
X031500Y003500
X031750Y004000
X031500Y004500
X031750Y005000
X031500Y005500
X031750Y006000
X031750Y007000
X031500Y007500
X031500Y008500
X031750Y009000
X031500Y009500
X031750Y010000
X031500Y010500
X031750Y011000
X031750Y012000
X031500Y012500
X031750Y013000
X031500Y013500
X031750Y014000
X031500Y014500
X031750Y015000
X031500Y015500
X031750Y016000
X031500Y016500
X031750Y017000
X031500Y017500
X031750Y018000
X031500Y018500
X031750Y019000
X031500Y019500
X031750Y020000
X031500Y020500
X031750Y021000
X031750Y023000
X031750Y024000
X031500Y025500
X031750Y026000
X031500Y026500
X031750Y027000
X031500Y027500
X031750Y028000
X031750Y029000
X031750Y035000
X031750Y036000
X031750Y041000
X031500Y043500
X032000Y000500
X032000Y001500
X032250Y002000
X032000Y002500
X032250Y003000
X032000Y003500
X032250Y004000
X032000Y004500
X032250Y005000
X032000Y005500
X032250Y006000
X032250Y007000
X032000Y007500
X032000Y008500
X032250Y009000
X032000Y009500
X032250Y010000
X032000Y010500
X032250Y011000
X032250Y012000
X032000Y012500
X032250Y013000
X032000Y013500
X032250Y014000
X032000Y014500
X032250Y015000
X032000Y015500
X032250Y016000
X032000Y016500
X032250Y017000
X032000Y017500
X032250Y018000
X032000Y018500
X032250Y019000
X032000Y019500
X032250Y020000
X032000Y020500
X032250Y021000
X032000Y023500
X032250Y024000
X032000Y025500
X032250Y026000
X032000Y026500
X032250Y027000
X032000Y027500
X032250Y028000
X032000Y028500
X032250Y029000
X032000Y029500
X032250Y030000
X032000Y030500
X032250Y031000
X032000Y031500
X032000Y032500
X032000Y035500
X032250Y041000
X032000Y043500
X032500Y000500
X032500Y001500
X032750Y002000
X032500Y002500
X032750Y003000
X032500Y003500
X032750Y004000
X032500Y004500
X032750Y010000
X032750Y011000
X032750Y012000
X032750Y013000
X032750Y014000
X032750Y015000
X032750Y016000
X032750Y017000
X032750Y018000
X032750Y019000
X032750Y020000
X032750Y021000
X032750Y026000
X032750Y027000
X032750Y028000
X032750Y029000
X032500Y029500
X032750Y030000
X032500Y030500
X032500Y035500
X032750Y041000
X032500Y043500
X033000Y000500
X033000Y001500
X033000Y002500
X033000Y005500
X033250Y006000
X033250Y007000
X033000Y007500
X033250Y010000
X033000Y010500
X033250Y011000
X033250Y012000
X033000Y012500
X033250Y013000
X033000Y013500
X033250Y014000
X033000Y014500
X033250Y015000
X033000Y015500
X033250Y016000
X033000Y016500
X033250Y017000
X033000Y017500
X033250Y018000
X033000Y018500
X033250Y019000
X033000Y019500
X033250Y020000
X033000Y020500
X033250Y021000
X033000Y023500
X033250Y024000
X033000Y024500
X033000Y025500
X033250Y026000
X033000Y026500
X033250Y027000
X033000Y027500
X033250Y028000
X033250Y029000
X033000Y029500
X033000Y030500
X033250Y031000
X033000Y032500
X033000Y035500
X033000Y043500
X033500Y000500
X033750Y001000
X033750Y002000
X033750Y003000
X033500Y005500
X033750Y006000
X033750Y007000
X033750Y008000
X033750Y010000
X033750Y011000
X033750Y012000
X033500Y012500
X033750Y013000
X033500Y013500
X033750Y014000
X033500Y014500
X033750Y015000
X033500Y015500
X033750Y016000
X033500Y016500
X033750Y017000
X033500Y017500
X033750Y018000
X033500Y018500
X033750Y019000
X033500Y019500
X033750Y020000
X033500Y020500
X033750Y021000
X033500Y021500
X033750Y022000
X033500Y022500
X033750Y023000
X033500Y023500
X033750Y024000
X033500Y024500
X033500Y025500
X033750Y026000
X033500Y026500
X033750Y027000
X033500Y027500
X033750Y028000
X033500Y029500
X033500Y030500
X033750Y032000
X033750Y033000
X033500Y040500
X033750Y041000
X033500Y043500
X034000Y000500
X034250Y001000
X034000Y001500
X034250Y002000
X034000Y002500
X034250Y003000
X034000Y003500
X034250Y004000
X034000Y004500
X034250Y005000
X034000Y005500
X034250Y006000
X034250Y007000
X034250Y010000
X034250Y012000
X034000Y012500
X034250Y013000
X034000Y013500
X034250Y014000
X034000Y014500
X034250Y015000
X034000Y015500
X034250Y016000
X034000Y016500
X034250Y017000
X034000Y017500
X034250Y018000
X034000Y018500
X034000Y020500
X034250Y021000
X034000Y021500
X034250Y022000
X034000Y022500
X034250Y023000
X034000Y023500
X034250Y024000
X034250Y026000
X034000Y026500
X034250Y028000
X034000Y029500
X034000Y043500
X034500Y002500
X034750Y002000
X034750Y003000
X034500Y003500
X034750Y004000
X034500Y004500
X034750Y005000
X034500Y005500
X034750Y006000
X034500Y009500
X034750Y011000
X034750Y012000
X034500Y012500
X034750Y013000
X034500Y013500
X034750Y014000
X034500Y014500
X034750Y015000
X034500Y015500
X034750Y016000
X034500Y016500
X034750Y017000
X034500Y017500
X034750Y018000
X034500Y018500
X034500Y020500
X034750Y021000
X034500Y021500
X034750Y022000
X034500Y022500
X034750Y023000
X034500Y023500
X034750Y024000
X034750Y026000
X034500Y026500
X034500Y029500
X034500Y030500
X034500Y033500
X034750Y034000
X034500Y034500
X034750Y035000
X034750Y036000
X034750Y043000
X034500Y043500
X035000Y000500
X035250Y002000
X035250Y003000
X035250Y004000
X035000Y004500
X035250Y005000
X035000Y005500
X035250Y006000
X035250Y007000
X035250Y009000
X035250Y010000
X035250Y011000
X035250Y012000
X035000Y012500
X035250Y013000
X035000Y013500
X035250Y014000
X035000Y014500
X035250Y015000
X035000Y015500
X035250Y016000
X035000Y016500
X035250Y017000
X035000Y017500
X035250Y018000
X035000Y018500
X035000Y020500
X035000Y021500
X035250Y022000
X035000Y022500
X035000Y023500
X035250Y024000
X035250Y026000
X035000Y026500
X035000Y030500
X035250Y032000
X035000Y036500
X035250Y043000
X035000Y043500
X035500Y002500
X035750Y001000
X035750Y002000
X035750Y003000
X035750Y004000
X035500Y004500
X035750Y005000
X035500Y005500
X035750Y006000
X035750Y011000
X035750Y012000
X035500Y012500
X035750Y013000
X035500Y013500
X035750Y014000
X035500Y014500
X035750Y015000
X035500Y015500
X035750Y016000
X035500Y016500
X035750Y017000
X035500Y017500
X035750Y018000
X035500Y018500
X035500Y020500
X035750Y022000
X035500Y022500
X035750Y024000
X035750Y026000
X035500Y026500
X035750Y030000
X035500Y030500
X035500Y031500
X035500Y032500
X035500Y033500
X035500Y034500
X035750Y037000
X035750Y043000
X035500Y043500
X036000Y000500
X036000Y001500
X036000Y002500
X036000Y004500
X036000Y005500
X036000Y009500
X036000Y011500
X036000Y012500
X036000Y013500
X036000Y014500
X036000Y015500
X036000Y016500
X036000Y017500
X036000Y018500
X036000Y020500
X036000Y021500
X036000Y022500
X036000Y023500
X036000Y026500
X036000Y030500
X036000Y033500
X036200Y038520
X036000Y043500
X036250Y001000
X036250Y002000
X036250Y003000
X036250Y004000
X036250Y005000
X036250Y006000
X036250Y007000
X036250Y010000
X036250Y011000
X036250Y012000
X036250Y013000
X036250Y014000
X036250Y015000
X036250Y016000
X036250Y017000
X036250Y018000
X036250Y021000
X036250Y022000
X036250Y023000
X036250Y024000
X036250Y026000
X036250Y030000
X036250Y040000
X036490Y043000
X036500Y000500
X036750Y001000
X036500Y001500
X036750Y002000
X036500Y002500
X036750Y003000
X036500Y005500
X036750Y006000
X036750Y007000
X036750Y010000
X036750Y011000
X036500Y011500
X036750Y012000
X036500Y012500
X036750Y013000
X036500Y013500
X036750Y014000
X036500Y014500
X036750Y015000
X036500Y015500
X036750Y016000
X036500Y016500
X036750Y017000
X036500Y017500
X036750Y018000
X036500Y018500
X036750Y019000
X036500Y020500
X036500Y021500
X036500Y022500
X036500Y023500
X036750Y026000
X036500Y026500
X036750Y030000
X036500Y030500
X036750Y031000
X036500Y033500
X036750Y037000
X036750Y040000
X036750Y041000
X036500Y041500
X036500Y043500
X037000Y002500
X037000Y005500
X037000Y011500
X037000Y012500
X037000Y013500
X037000Y014500
X037000Y015500
X037000Y016500
X037000Y017500
X037000Y018500
X037000Y025500
X037000Y026500
X037040Y027960
X037000Y031500
X037000Y039500
X037000Y040500
X037250Y003000
X037500Y002500
X037500Y005500
X037250Y006000
X037250Y007000
X037500Y007500
X037250Y010000
X037500Y010500
X037250Y011000
X037500Y011500
X037250Y012000
X037500Y012500
X037250Y013000
X037500Y013500
X037250Y014000
X037500Y014500
X037250Y015000
X037500Y015500
X037250Y016000
X037500Y016500
X037250Y017000
X037500Y017500
X037250Y018000
X037500Y018500
X037250Y019000
X037500Y019500
X037250Y020000
X037500Y020500
X037250Y021000
X037500Y021500
X037250Y022000
X037500Y022500
X037250Y023000
X037500Y023500
X037250Y024000
X037500Y024500
X037250Y025000
X037500Y025500
X037250Y026000
X037500Y026500
X037250Y030000
X037250Y031000
X037500Y039500
X037250Y040000
X037750Y003000
X038000Y002500
X038000Y003500
X037750Y004000
X038000Y004500
X037750Y010000
X038000Y010500
X037750Y011000
X038000Y011500
X037750Y012000
X038000Y012500
X037750Y013000
X038000Y013500
X037750Y014000
X038000Y014500
X037750Y015000
X038000Y015500
X037750Y016000
X038000Y016500
X037750Y017000
X038000Y017500
X037750Y018000
X038000Y018500
X037750Y019000
X038000Y019500
X037750Y020000
X038000Y020500
X037750Y021000
X038000Y021500
X037750Y022000
X038000Y022500
X037750Y023000
X038000Y023500
X037750Y024000
X038000Y024500
X037750Y025000
X038000Y025500
X037750Y026000
X038000Y026500
X038000Y029500
X038000Y032500
X038000Y033500
X038000Y035500
X038000Y036500
X038220Y035000
X038250Y003000
X038250Y004000
X038250Y005000
X038250Y006000
X038250Y030000
X038250Y031000
X038250Y032000
X038250Y034000
X038470Y031500
X038470Y032500
X038470Y033500
X038500Y002500
X038500Y003500
X038500Y004500
X038500Y005500
X038500Y029500
X038500Y038500
X038500Y039500
X038750Y003000
X038750Y004000
X038750Y005000
X038750Y006000
X038750Y007000
X038750Y039000
X038750Y040000
X038750Y041000
T4C0.0350F200S100
X000600Y040800
X000900Y020200
X001600Y040800
X001650Y030700
X002900Y034600
X003250Y025000
X003250Y026000
X004600Y029300
X005600Y029300
X006050Y030700
X006550Y034600
X006600Y029300
X010150Y034600
X010500Y030700
X011400Y034600
X011600Y020200
X012400Y039300
X012650Y034600
X013400Y039300
X013950Y029500
X014100Y036950
X014950Y029500
X021050Y037050
X024700Y038700
X025500Y003650
X025500Y004900
X026900Y042400
X029100Y003650
X029100Y004900
X029600Y038700
X031050Y042450
X033000Y038700
X033400Y003650
X033400Y004900
X034100Y028550
X035200Y042400
X036050Y032000
X037000Y003650
X037000Y004900
X037150Y038700
X038300Y028600
T7C0.0520F200S100
X003200Y042250
X005200Y042250
X007200Y042250
X009200Y042250
X011200Y042250
X013200Y042250
T9C0.1000F200S100
X001000Y001000
X038000Y001000
X038000Y043000
X001000Y043000
T6C0.0420F200S100
X012450Y012900
X012450Y013900
X013450Y012900
X013450Y013900
X014450Y012900
X014450Y013900
X015450Y012900
X015450Y013900
X016450Y012900
X016450Y013900
X017450Y012900
X017450Y013900
X018450Y012900
X018450Y013900
X019450Y012900
X019450Y013900
X020450Y012900
X020450Y013900
X021450Y012900
X021450Y013900
T3C0.0300F200S100
X003450Y000500
X003950Y001000
X003450Y001500
X004450Y000500
X004450Y001500
X007450Y000500
X007450Y001500
X007950Y001000
X008450Y000500
X008450Y001500
X012450Y000500
X012950Y001000
X012450Y001500
X013450Y000500
X013450Y001500
X016450Y000500
X016450Y001500
X016950Y001000
X017450Y000500
X017450Y001500
X021450Y000450
X021950Y000950
X021450Y001450
X022450Y000450
X022450Y001450
X025400Y000450
X025400Y001450
X025900Y000950
X026400Y000450
X026400Y001450
X030550Y000450
X031050Y000950
X030550Y001450
X031550Y000450
X031550Y001450
X034550Y000450
X034550Y001450
X035050Y000950
X035550Y000450
X035550Y001450
T5C0.0370F200S100
X004600Y024750
X004600Y025750
X004600Y026750
X004600Y027750
X005600Y024750
X005600Y025750
X005600Y026750
X005600Y027750
X006600Y024750
X006600Y025750
X006600Y026750
X006600Y027750
X020700Y005250
X020700Y006250
X020700Y007250
X020700Y009150
X020700Y010150
X020700Y011150
X021700Y005250
X021700Y006250
X021700Y007250
X021700Y009150
X021700Y010150
X021700Y011150
X022700Y005250
X022700Y006250
X022700Y007250
X022700Y009150
X022700Y010150
X022700Y011150
X025400Y034650
X025400Y035650
X025400Y036650
X026400Y034650
X026400Y035650
X026400Y036650
X027400Y034650
X027400Y035650
X027400Y036650
X028400Y034650
X028400Y035650
X028400Y036650
M30
